<?xml version="1.0" encoding="UTF-8"?>
<svg width="450px" height="590px" viewBox="0 0 450 590" version="1.1" xmlns="http://www.w3.org/2000/svg" xmlns:xlink="http://www.w3.org/1999/xlink">
    <!-- Generator: Sketch 64 (93537) - https://sketch.com -->
    <title>Group 6 Copy</title>
    <desc>Created with Sketch.</desc>
    <g id="tmp" stroke="none" stroke-width="1" fill="none" fill-rule="evenodd">
        <g id="Group-6-Copy">
            <circle id="Oval" stroke="#A08C7D" fill="#AEC086" cx="225" cy="55" r="54.5"></circle>
            <circle id="Oval-Copy" stroke="#A08C7D" fill="#D7D2CC" cx="225" cy="215" r="54.5"></circle>
            <circle id="Oval-Copy-3" stroke="#A08C7D" fill="#D7D2CC" cx="395" cy="215" r="54.5"></circle>
            <circle id="Oval-Copy-4" stroke="#A08C7D" fill="#D7D2CC" cx="395" cy="375" r="54.5"></circle>
            <circle id="Oval-Copy-7" stroke="#A08C7D" fill="#D7D2CC" cx="225" cy="535" r="54.5"></circle>
            <circle id="Oval-Copy-8" stroke="#A08C7D" fill="#AEC086" cx="395" cy="535" r="54.5"></circle>
            <circle id="Oval-Copy-5" stroke="#A08C7D" fill="#AEC086" cx="55" cy="535" r="54.5"></circle>
            <circle id="Oval-Copy-6" stroke="#A08C7D" fill="#AEC086" cx="225" cy="375" r="54.5"></circle>
            <circle id="Oval-Copy-2" stroke="#A08C7D" fill="#AEC086" cx="55" cy="215" r="54.5"></circle>
            <path id="Line-21" d="M225,109 L225,151 L229,151 L224.5,160 L220,151 L224,151 L224,109 L225,109 Z" fill="#A08C7D" fill-rule="nonzero"></path>
            <path id="Line-21-Copy" d="M395.5,269.5 L395.5,311.5 L399.5,311.5 L395,320.5 L390.5,311.5 L394.5,311.5 L394.5,269.5 L395.5,269.5 Z" fill="#A08C7D" fill-rule="nonzero"></path>
            <path id="Line-21-Copy-2" d="M395.5,429.5 L395.5,471.5 L399.5,471.5 L395,480.5 L390.5,471.5 L394.5,471.5 L394.5,429.5 L395.5,429.5 Z" fill="#A08C7D" fill-rule="nonzero"></path>
            <path id="Line-21-Copy-3" d="M226.5,429.5 L226.5,471.5 L230.5,471.5 L226,480.5 L221.5,471.5 L225.5,471.5 L225.5,429.5 L226.5,429.5 Z" fill="#A08C7D" fill-rule="nonzero"></path>
            <path id="Line-21-Copy" d="M395.339789,269.379885 L395.620115,270.339789 L395.140163,270.479952 L233.799,317.597 L234.920659,321.436799 L225.020048,319.640163 L232.397723,312.797656 L233.518,316.637 L394.859837,269.520048 L395.339789,269.379885 Z" fill="#A08C7D" fill-rule="nonzero"></path>
            <path id="Line-22" d="M280.002188,53.9978214 L280.502183,54.0000048 L395.002183,54.5000048 L395.497624,54.5021683 L395.499994,54.9976077 L395.959,150.997 L399.959279,150.978566 L395.502392,159.999994 L390.959382,151.021628 L394.959,151.002 L394.502,55.497 L280.497817,54.9999952 L279.997821,54.9978118 L280.002188,53.9978214 Z" fill="#A08C7D" fill-rule="nonzero"></path>
            <text id="ul" font-family="Monaco" font-size="36" font-weight="normal" fill="#474646">
                <tspan x="203.396484" y="67">ul</tspan>
            </text>
            <text id="ul-copy" font-family="Monaco" font-size="36" font-weight="normal" fill="#474646">
                <tspan x="203.396484" y="388">ul</tspan>
            </text>
            <text id="li" font-family="Monaco" font-size="36" font-weight="normal" fill="#474646">
                <tspan x="33.3964844" y="228">li</tspan>
            </text>
            <text id="li-copy" font-family="Monaco" font-size="36" font-weight="normal" fill="#474646">
                <tspan x="203.396484" y="228">li</tspan>
            </text>
            <text id="li-copy-2" font-family="Monaco" font-size="36" font-weight="normal" fill="#474646">
                <tspan x="373.396484" y="228">li</tspan>
            </text>
            <text id="li-copy-3" font-family="Monaco" font-size="36" font-weight="normal" fill="#474646">
                <tspan x="373.396484" y="548">li</tspan>
            </text>
            <text id="li-copy-4" font-family="Monaco" font-size="36" font-weight="normal" fill="#474646">
                <tspan x="203.396484" y="548">li</tspan>
            </text>
            <text id="li-copy-5" font-family="Monaco" font-size="36" font-weight="normal" fill="#474646">
                <tspan x="33.3964844" y="549">li</tspan>
            </text>
            <path id="Line-23" d="M170,374.5 L170,375.5 L55.5,375.5 L55.5,471 L59.5,471 L55,480 L50.5,471 L54.5,471 L54.5,374.5 L170,374.5 Z" fill="#979797" fill-rule="nonzero"></path>
            <path id="Line-23-Copy" d="M171,54.5 L171,55.5 L56.5,55.5 L56.5,151 L60.5,151 L56,160 L51.5,151 L55.5,151 L55.5,54.5 L171,54.5 Z" fill="#979797" fill-rule="nonzero"></path>
            <text id="ul-copy-2" font-family="Monaco" font-size="36" font-weight="normal" fill="#474646">
                <tspan x="374.396484" y="388">ul</tspan>
            </text>
        </g>
    </g>
</svg>