<?xml version="1.0" encoding="UTF-8"?>
<svg width="630px" height="750px" viewBox="0 0 630 750" version="1.1" xmlns="http://www.w3.org/2000/svg" xmlns:xlink="http://www.w3.org/1999/xlink">
    <!-- Generator: Sketch 64 (93537) - https://sketch.com -->
    <title>Group 6 Copy 5</title>
    <desc>Created with Sketch.</desc>
    <g id="tmp" stroke="none" stroke-width="1" fill="none" fill-rule="evenodd">
        <g id="Group-6-Copy-5">
            <circle id="Oval" stroke="#A08C7D" fill="#D7D2CC" cx="225" cy="55" r="54.5"></circle>
            <path id="Line-24" d="M170.997821,53.9978308 L171.002169,54.9978214 L170.502174,54.9999953 L55.999,55.497 L55.999,151 L60,151 L55.5,160 L51,151 L54.999,151 L55,54.5021692 L55.4978261,54.5000047 L170.497826,54.0000047 L170.997821,53.9978308 Z" fill="#979797" fill-rule="nonzero"></path>
            <circle id="Oval-Copy-3" stroke="#A08C7D" fill="#AEC086" cx="395" cy="215" r="54.5"></circle>
            <circle id="Oval-Copy-4" stroke="#A08C7D" fill="#D7D2CC" cx="315" cy="375" r="54.5"></circle>
            <circle id="Oval-Copy-10" stroke="#A08C7D" fill="#AEC086" cx="445" cy="374" r="54.5"></circle>
            <circle id="Oval-Copy-11" stroke="#A08C7D" fill="#D7D2CC" cx="575" cy="375" r="54.5"></circle>
            <circle id="Oval-Copy-7" stroke="#A08C7D" fill="#D7D2CC" cx="315" cy="535" r="54.5"></circle>
            <circle id="Oval-Copy-8" stroke="#A08C7D" fill="#AEC086" cx="445" cy="535" r="54.5"></circle>
            <circle id="Oval-Copy-5" stroke="#A08C7D" fill="#D7D2CC" cx="445" cy="695" r="54.5"></circle>
            <circle id="Oval-Copy-6" stroke="#A08C7D" fill="#AEC086" cx="185" cy="375" r="54.5"></circle>
            <circle id="Oval-Copy-9" stroke="#A08C7D" fill="#D7D2CC" cx="55" cy="375" r="54.5"></circle>
            <circle id="Oval-Copy-12" stroke="#A08C7D" fill="#AEC086" cx="315" cy="695" r="54.5"></circle>
            <circle id="Oval-Copy-13" stroke="#A08C7D" fill="#D7D2CC" cx="185" cy="695" r="54.5"></circle>
            <circle id="Oval-Copy-2" stroke="#A08C7D" fill="#D7D2CC" cx="55" cy="215" r="54.5"></circle>
            <path id="Line-21-Copy" d="M395.487957,269.48824 L395.499858,269.988099 L395.987,290.5 L445.5,290.5 L445.499,310.5 L449.5,310.5 L445,319.5 L440.5,310.5 L444.499,310.5 L444.499,291.5 L395.011763,291.5 L395.000142,291.011901 L394.500142,270.011901 L394.48824,269.512043 L395.487957,269.48824 Z" fill="#A08C7D" fill-rule="nonzero"></path>
            <path id="Line-21-Copy-2" d="M315.5,429.5 L315.5,471.5 L319.5,471.5 L315,480.5 L310.5,471.5 L314.5,471.5 L314.5,429.5 L315.5,429.5 Z" fill="#A08C7D" fill-rule="nonzero"></path>
            <path id="Line-21-Copy-5" d="M445.5,589.5 L445.5,631.5 L449.5,631.5 L445,640.5 L440.5,631.5 L444.5,631.5 L444.5,589.5 L445.5,589.5 Z" fill="#A08C7D" fill-rule="nonzero"></path>
            <path id="Line-21-Copy-6" d="M315.5,589.5 L315.5,631.5 L319.5,631.5 L315,640.5 L310.5,631.5 L314.5,631.5 L314.5,589.5 L315.5,589.5 Z" fill="#A08C7D" fill-rule="nonzero"></path>
            <path id="Line-21-Copy-3" d="M444.5,454.5 L444.5,471.499 L448.5,471.5 L444,480.5 L439.5,471.5 L443.5,471.499 L443.5,455.499 L314.5,455.5 L314.5,454.5 L444.5,454.5 Z" fill="#A08C7D" fill-rule="nonzero"></path>
            <path id="Line-21-Copy" d="M315.5,290.5 L315.5,291.5 L185.506,291.5 L185.767,310.724 L189.766827,310.670246 L185.389124,319.730363 L180.767652,310.792131 L184.767,310.738 L184.500046,291.006771 L184.493182,290.5 L315.5,290.5 Z" fill="#A08C7D" fill-rule="nonzero"></path>
            <path id="Line-21-Copy" d="M395.5,290.5 L395.5,291.5 L315.503,291.5 L315.664,310.726 L319.664295,310.693199 L315.239461,319.730391 L310.664607,310.768209 L314.664,310.735 L314.500017,291.004167 L314.495815,290.5 L395.5,290.5 Z" fill="#A08C7D" fill-rule="nonzero"></path>
            <path id="Line-21-Copy-4" d="M225.5,290.5 L225.5,291.5 L55.508,291.5 L55.849,310.723 L59.8487711,310.652053 L55.5088543,319.73033 L50.8501824,310.81143 L54.849,310.74 L54.5000784,291.008854 L54.4910659,290.5 L225.5,290.5 Z" fill="#A08C7D" fill-rule="nonzero"></path>
            <path id="Line-21-Copy-7" d="M315.5,611.5 L315.5,612.5 L185.506,612.5 L185.767,631.724 L189.766827,631.670246 L185.389124,640.730363 L180.767652,631.792131 L184.767,631.738 L184.500046,612.006771 L184.493182,611.5 L315.5,611.5 Z" fill="#A08C7D" fill-rule="nonzero"></path>
            <path id="Line-22" d="M280.002188,53.9978214 L280.502183,54.0000048 L395.002183,54.5000048 L395.497624,54.5021683 L395.499994,54.9976077 L395.959,150.997 L399.959279,150.978566 L395.502392,159.999994 L390.959382,151.021628 L394.959,151.002 L394.502,55.497 L280.497817,54.9999952 L279.997821,54.9978118 L280.002188,53.9978214 Z" fill="#A08C7D" fill-rule="nonzero"></path>
            <path id="Line-22-Copy" d="M444.500534,290.499467 L445.000533,290.5 L574.435316,290.638096 L574.925097,290.638618 L574.934687,291.128305 L575.333,311.491 L579.332709,311.413521 L575.00979,320.499904 L570.334435,311.589738 L574.333,311.511 L573.944,291.637 L444.999467,291.5 L444.499467,291.499466 L444.500534,290.499467 Z" fill="#A08C7D" fill-rule="nonzero"></path>
            <text id="html" font-family="Monaco" font-size="36" font-weight="normal" fill="#474646">
                <tspan x="181.792969" y="67">html</tspan>
            </text>
            <text id="em" font-family="Monaco" font-size="36" font-weight="normal" fill="#474646">
                <tspan x="163.396484" y="388">em</tspan>
            </text>
            <text id="span" font-family="Monaco" font-size="36" font-weight="normal" fill="#474646">
                <tspan x="11.7929688" y="388">span</tspan>
            </text>
            <text id="span-copy" font-family="Monaco" font-size="36" font-weight="normal" fill="#474646">
                <tspan x="271.792969" y="708">span</tspan>
            </text>
            <text id="span-copy-2" font-family="Monaco" font-size="36" font-weight="normal" fill="#474646">
                <tspan x="141.792969" y="708">span</tspan>
            </text>
            <text id="div" font-family="Monaco" font-size="36" font-weight="normal" fill="#474646">
                <tspan x="22.5947266" y="228">div</tspan>
            </text>
            <text id="div" font-family="Monaco" font-size="36" font-weight="normal" fill="#474646">
                <tspan x="362.594727" y="228">div</tspan>
            </text>
            <text id="em" font-family="Monaco" font-size="36" font-weight="normal" fill="#474646">
                <tspan x="423.396484" y="548">em</tspan>
            </text>
            <text id="em" font-family="Monaco" font-size="36" font-weight="normal" fill="#474646">
                <tspan x="293.396484" y="548">em</tspan>
            </text>
            <text id="li-copy-5" font-family="Monaco" font-size="36" font-weight="normal" fill="#474646">
                <tspan x="423.396484" y="709">li</tspan>
            </text>
            <text id="div" font-family="Monaco" font-size="36" font-weight="normal" fill="#474646">
                <tspan x="282.594727" y="388">div</tspan>
            </text>
            <text id="span" font-family="Monaco" font-size="36" font-weight="normal" fill="#474646">
                <tspan x="401.792969" y="388">span</tspan>
            </text>
            <text id="div" font-family="Monaco" font-size="36" font-weight="normal" fill="#474646">
                <tspan x="542.594727" y="389">div</tspan>
            </text>
        </g>
    </g>
</svg>