<?xml version="1.0" encoding="UTF-8"?>
<svg width="1071px" height="294px" viewBox="0 0 1071 294" version="1.1" xmlns="http://www.w3.org/2000/svg" xmlns:xlink="http://www.w3.org/1999/xlink">
    <!-- Generator: Sketch 64 (93537) - https://sketch.com -->
    <title>Group 5</title>
    <desc>Created with Sketch.</desc>
    <g id="tmp" stroke="none" stroke-width="1" fill="none" fill-rule="evenodd">
        <g id="Group-5">
            <g id="user-(1)" transform="translate(236.000000, 163.000000)" fill-rule="nonzero">
                <polygon id="Path" fill="#E1E6F0" points="46 69 52 69 52 87 46 87"></polygon>
                <polygon id="Path" fill="#CFD7E6" points="49 69 52 69 52 87 49 87"></polygon>
                <polygon id="Path" fill="#4D5E80" points="98 75 0 75 0 0 98 0"></polygon>
                <polygon id="Path" fill="#3D4566" points="49 0 98 0 98 75 49 75"></polygon>
                <g id="Business_Recruitment_1_" transform="translate(11.000000, 17.000000)">
                    <path d="M57.6923077,81 L17.3076923,81 L17.3076923,78.1208531 C17.3076923,70.1834289 23.7782692,63.7251185 31.7307692,63.7251185 L43.2692308,63.7251185 C51.2217308,63.7251185 57.6923077,70.1834289 57.6923077,78.1208531 L57.6923077,81 Z" id="Path" fill="#F3F5F9"></path>
                    <path d="M14.4230769,17.2748815 C9.65115385,17.2748815 5.76923077,13.4003175 5.76923077,8.63744076 C5.76923077,3.87456398 9.65115385,0 14.4230769,0 C19.195,0 23.0769231,3.87456398 23.0769231,8.63744076 C23.0769231,13.4003175 19.195,17.2748815 14.4230769,17.2748815 Z" id="Path" fill="#FFD9B3"></path>
                    <path d="M28.8461538,40.3080569 L0,40.3080569 L0,32.2863697 C0,24.9535664 5.16923077,18.5850853 12.0201923,17.468936 L12.0230769,17.468936 C21.0348077,16.0335853 28.8461538,22.9135948 28.8461538,31.6706161 L28.8461538,40.3080569 Z" id="Path" fill="#82E1D8"></path>
                    <polygon id="Path" fill="#F3F5F9" points="34.6153846 34.549763 57.6923077 34.549763 57.6923077 40.3080569 34.6153846 40.3080569"></polygon>
                    <polygon id="Path" fill="#F3F5F9" points="34.6153846 23.0331754 75 23.0331754 75 28.7914692 34.6153846 28.7914692"></polygon>
                    <polygon id="Path" fill="#F3F5F9" points="34.6153846 11.5165877 75 11.5165877 75 17.2748815 34.6153846 17.2748815"></polygon>
                    <polygon id="Path" fill="#E1E6F0" points="51.9230769 0 75 0 75 5.75829384 51.9230769 5.75829384"></polygon>
                    <polygon id="Path" fill="#F3F5F9" points="34.6153846 0 46.1538462 0 46.1538462 5.75829384 34.6153846 5.75829384"></polygon>
                    <polygon id="Path" fill="#E1E6F0" points="63.4615385 34.549763 75 34.549763 75 40.3080569 63.4615385 40.3080569"></polygon>
                </g>
                <g id="Business_Recruitment_3_" transform="translate(11.000000, 17.000000)">
                    <path d="M14.5,17.1428571 C9.70262667,17.1428571 5.8,13.2979048 5.8,8.57142857 C5.8,3.84495238 9.70262667,0 14.5,0 C19.2973733,0 23.2,3.84495238 23.2,8.57142857 C23.2,13.2979048 19.2973733,17.1428571 14.5,17.1428571 Z" id="Path" fill="#FFD9B3"></path>
                    <path d="M29,40 L0,40 L0,32.039619 C0,24.7628571 5.1968,18.4430476 12.0843,17.3354286 L12.0872,17.3354286 C21.1469933,15.9110476 29,22.7384762 29,31.4285714 L29,40 Z" id="Path" fill="#82E1D8"></path>
                </g>
                <g id="Group" transform="translate(49.000000, 17.000000)" fill="#E1E6F0">
                    <path d="M5.69230769,63.7251185 L0,63.7251185 L0,81 L19.9230769,81 L19.9230769,78.1208531 C19.9230769,70.1834289 13.5387744,63.7251185 5.69230769,63.7251185 Z" id="Path"></path>
                    <polygon id="Path" points="0 34.549763 19.9230769 34.549763 19.9230769 40.3080569 0 40.3080569"></polygon>
                    <polygon id="Path" points="0 23.0331754 37 23.0331754 37 28.7914692 0 28.7914692"></polygon>
                    <polygon id="Path" points="0 11.5165877 37 11.5165877 37 17.2748815 0 17.2748815"></polygon>
                    <polygon id="Path" points="0 0 8.53846154 0 8.53846154 5.75829384 0 5.75829384"></polygon>
                </g>
            </g>
            <g id="man" transform="translate(0.000000, 163.000000)" fill-rule="nonzero">
                <path d="M69.9189045,92.773805 C69.8496416,92.4266857 65.6303604,71.2508804 65.5839293,71.0333319 C65.0772164,68.5822217 63.7042376,66.7045962 61.68909,65.49495 C60.4811142,64.7669771 59.7952004,64.6510152 59.0118197,64.410466 C59.5624694,64.6027137 48.9145928,60.8850305 44.6239381,59.3869169 C43.7747481,59.0959577 43.2043364,58.2982161 43.2043364,57.4013796 L43.2043364,53 C37.6934266,55.7528029 31.9144829,55.5789558 26.7849987,53.0782025 L26.7849987,57.4013796 C26.7849987,58.2982161 26.2145871,59.0961494 25.365397,59.3869169 C24.7606417,59.594115 27.5561002,58.6365183 19.4508054,61.412897 L19.4452413,61.412897 C19.4454332,61.413472 19.4458169,61.4140471 19.4458169,61.4140471 L19.4452413,61.4150054 L10.9834632,64.410466 C10.5928281,64.5256612 9.82115107,64.7531767 9.87026825,64.7386096 C7.85723114,65.4886248 6.11165244,66.9129444 5.13352975,68.9046152 C4.45644169,70.2766082 4.6573233,69.7947431 1.37165225,86.2718845 C0.155042606,92.5656484 -0.113566998,93.0241295 0.0385811562,94.4302402 C0.462025011,98.3606801 4.50882056,97.9505005 4.6183749,97.998227 C12.3777389,97.998227 35.7598212,97.998227 35.0234472,97.998227 C35.1049894,97.998227 38.6019027,97.998227 38.3845208,97.998227 C43.7877948,97.998227 62.9429213,97.998227 65.3759487,97.998227 C65.41931,97.9836599 70.7126459,98.3861725 69.9189045,92.773805 Z" id="Path" fill="#82E1D8"></path>
                <path d="M5.04379291,92.8181351 L9.40105734,69.2949853 C9.34069246,69.5807332 9.72448196,66.1485271 13,64 C9.34184961,65.2777852 10.4756679,64.7665571 9.35110685,65.2416628 C7.22830733,66.1867409 5.58206251,67.7924803 4.77031879,70.0552685 C4.44554415,70.9640341 4.65614623,70.1651569 1.3786996,86.3687513 C0.15578039,92.6114764 -0.114029415,93.0668098 0.0387149494,94.4609475 C0.464354864,98.3595137 4.53213786,97.9526605 4.64226038,98 C5.12710802,98 9.01148207,98 9.60992369,98 C6.10490338,98 4.5903813,95.9796126 5.04379291,92.8181351 Z" id="Path" fill="#61AEA7"></path>
                <path d="M14,98 C11.086325,98 7.73025947,98 4.76428211,98 C4.64600755,97.950296 -0.116871464,98.4102011 0.0021955587,93.6374716 C0.0281486035,92.6197769 0.160687435,92.5769286 1.41178269,86.3490708 L1.48409461,86 L14,86 L14,98 Z" id="Path" fill="#DD9A5E"></path>
                <path d="M6.557239,86 L1.50402802,86 L1.43074361,86.3488859 C0.158205022,92.5985527 0.0285016567,92.618168 0.0021995811,93.6374024 C-0.118067162,98.3944011 4.73315994,97.9605789 4.82832929,98 C5.3330882,98 9.37698213,98 10,98 C6.63915692,98 5.10600692,96.3229861 5.17387029,93.6374024 C5.18190146,93.3256523 5.30437678,92.6737764 6.557239,86 Z" id="Path" fill="#D18C54"></path>
                <path d="M27,52 C27,64.5507491 27,50.5702695 27.000187,60.4555323 L27.0052351,60.4555323 L27.0052351,60.7576626 C27.0052351,62.7657903 28.2291153,64.5507491 30.0460521,65.1883184 C32.9619758,66.2114858 36.7057854,66.3280666 39.9539479,65.1883184 C41.7710717,64.5507491 42.9947649,62.7659862 42.9947649,60.7576626 L42.9947649,60.4555323 L42.999813,60.4555323 C42.999813,58.4885508 43,53.0521657 43,52 C37.8163642,54.8964925 31.9712423,54.7779524 27,52 Z" id="Path" fill="#DD9A5E"></path>
                <path d="M31.9220151,62.3477433 L31.9157178,62.3477433 C31.9153362,52.0579154 31.915527,55.486451 31.9153362,54.7678956 C30.2188792,54.4259822 28.5645951,53.8388582 27,53 C27,65.2904626 27,51.0243085 27.0001908,60.7045636 L27.0053432,60.7045636 L27.0053432,61.000428 C27.0053432,62.9669097 28.2545003,64.7148508 30.1089625,65.3391977 C31.0260798,65.6479175 31.9945296,65.871063 33,66 C31.7500795,64.293503 31.9410979,62.4784072 31.9220151,62.3477433 Z" id="Path" fill="#D18C54"></path>
                <path d="M13.500097,81 C12.6716273,81 12,81.6660286 12,82.4880223 L12,98 C13.04044,98 13.883274,98 15,98 L15,82.4880223 C15.0001941,81.6660286 14.3285668,81 13.500097,81 Z" id="Path" fill="#61AEA7"></path>
                <path d="M83.3903117,98 L35.6096883,98 C33.6161472,98 32,96.2923449 32,94.1859276 L32,94.1859276 C32,92.9787434 32.9262957,92 34.0687907,92 L84.9312093,92 C86.0737043,92 87,92.9787434 87,94.1859276 L87,94.1859276 C87,96.2923449 85.3838528,98 83.3903117,98 Z" id="Path" fill="#C6C6C6"></path>
                <path d="M41.3645551,94.1858541 L41.3645551,94.1858541 C41.3645551,92.9787105 42.2975097,92 43.4482177,92 L34.0836626,92 C32.9329545,92 32,92.9787105 32,94.1858541 L32,94.1860559 C32,96.2924024 33.6277652,98 35.6356372,98 L45,98 C42.992128,97.9997982 41.3645551,96.2922006 41.3645551,94.1858541 Z" id="Path" fill="#B7B7B7"></path>
                <path d="M80.6000066,60 L38.3999934,60 C37.0800358,60 36,61.0762544 36,62.3915906 L36,89.6084094 C36,90.9237456 37.0800358,92 38.3999934,92 L80.6000066,92 C81.9199642,92 83,90.9237456 83,89.6084094 L83,62.3915906 C83,61.0762544 81.9199642,60 80.6000066,60 Z" id="Path" fill="#EDEDED"></path>
                <g id="Group" transform="translate(36.000000, 60.000000)" fill="#DADADA">
                    <path d="M5.09914286,29.4888623 L5.09914286,2.52742515 C5.09914286,1.22443114 6.1722,0.158275449 7.48362857,0.158275449 L2.51601429,0.158275449 C1.20458571,0.158275449 0.131528571,1.22443114 0.131528571,2.52742515 L0.131528571,29.4888623 C0.131528571,30.7918563 1.20458571,31.858012 2.51601429,31.858012 L7.48362857,31.858012 C6.1722,31.858012 5.09914286,30.7918563 5.09914286,29.4888623 Z" id="Path"></path>
                    <ellipse id="Oval" cx="23.4803571" cy="16.0076647" rx="3.44423571" ry="3.42208383"></ellipse>
                </g>
                <path d="M59.2197571,73 C56.7693643,72.9956891 55.1908341,75.9030748 56.4350153,78.2521702 C57.6797364,80.6022465 60.7783127,80.5637978 62,78.2494239 C59.5280131,78.2456967 57.9845734,75.3396842 59.2197571,73 Z" id="Path" fill="#C6C6C6"></path>
                <path d="M34.827725,0.0141757992 C21.9077762,0.0633240426 11,10.5771782 11,23.9346646 L11,33 L59,33 C59,24.4093127 59,27.1234955 59,19.4379873 C59,10.1747044 53.282798,8.04081923 53.282798,8.04081923 C46.1728372,-0.698086736 34.8372365,0.0139823022 34.8372365,0.0139823022" id="Path" fill="#4C4846"></path>
                <path d="M38,0.166264408 C23.3957493,-1.49482463 11.511234,9.5188128 11.0214183,22.9947773 C10.9836657,23.9637298 11.0090277,23.6012189 11.00109,33 L16.7032799,33 L16.7032799,23.9372282 C16.7032799,11.5662061 26.0756024,1.47393437 38,0.166264408 Z" id="Path" fill="#3D3938"></path>
                <g id="Group" transform="translate(10.000000, 30.000000)" fill="#DD9A5E">
                    <path d="M6.4225,0.350139535 C3.40705556,-0.677953488 0.133583333,1.23404651 0.133583333,4.02362791 C0.133583333,6.81246512 3.40666667,8.72539535 6.4225,7.69711628 L6.4225,0.350139535 Z" id="Path"></path>
                    <path d="M42.6616944,0.350139535 C45.6771389,-0.677953488 48.9506111,1.23404651 48.9506111,4.02362791 C48.9506111,6.81246512 45.6775278,8.72539535 42.6616944,7.69711628 L42.6616944,0.350139535 Z" id="Path"></path>
                </g>
                <g id="Group" transform="translate(10.000000, 32.000000)" fill="#D18C54">
                    <path d="M0.574,0.106064516 C-1.18747222,3.43451613 2.52116667,7.06877419 6.4225,5.68509677 L6.4225,2.17045161 C4.14730556,2.97716129 1.60338889,2.0516129 0.574,0.106064516 Z" id="Path"></path>
                    <path d="M42.6616944,2.17045161 L42.6616944,5.68509677 C46.5628333,7.06877419 50.2714722,3.43470968 48.5101944,0.106064516 C47.7736389,1.49845161 44.9376667,2.97754839 42.6616944,2.17045161 Z" id="Path"></path>
                </g>
                <path d="M52.1865761,22.6447754 C52.6455769,22.6886434 52.9987132,23.0654926 52.9987132,23.5217581 C52.9987132,38.51612 53.0086499,37.3840598 52.9732981,38.0812213 C52.7397848,42.641796 50.7686802,46.8293033 47.562745,49.9244585 C36.3283088,60.7632688 17.5815087,53.0765287 17.0175989,37.8728481 C16.9912283,37.2025368 17.0023116,29.4363805 17.0023116,29.4583145 C17.0023116,25.966456 20.1341035,23.3022288 23.6268664,23.8012277 C29.1278055,24.5868817 37.157262,24.2816963 44.1634256,18.3557287 C44.8832658,17.7468705 45.9759246,17.9435203 46.4356898,18.7628317 C47.3038166,20.3097475 49.0299424,22.3433716 52.1865761,22.6447754 Z" id="Path" fill="#EDAE6B"></path>
                <path d="M22.0332105,37.431176 C22.0102457,36.8414675 22.0151111,26.0488318 22.0170573,23 C19.2190449,23.4184215 17.0023543,25.8127544 17.0023543,28.7987357 C17.0023543,28.7762337 16.9910665,36.743506 17.0179237,37.431176 C17.4412162,48.9312679 27.9316705,56.237252 38,54.8262192 C29.7330479,53.6869567 22.3860516,47.0162671 22.0332105,37.431176 Z" id="Path" fill="#DD9A5E"></path>
            </g>
            <g id="cloud" transform="translate(598.000000, 0.000000)" fill="#A3D4F7" fill-rule="nonzero">
                <path d="M383.261625,114.68542 C377.294468,114.68542 371.339263,115.278413 365.491609,116.460419 C361.08197,94.4719368 346.825327,75.7150643 326.808665,65.562555 C306.795988,55.4100447 283.226121,54.9842041 262.854937,64.4044283 C244.419692,13.6697368 188.309306,-12.5254111 137.52873,5.89317627 C86.7481548,24.3117637 60.5293172,80.3754288 78.9645623,131.106141 C34.4817657,132.511015 -0.6559386,169.296453 0.00929146592,213.754974 C0.678504691,258.217477 36.9076652,293.928364 81.4143628,294 L383.261625,294 C432.819292,294 473,253.859579 473,204.34271 C473,154.825843 432.819292,114.68542 383.261625,114.68542 Z" id="Path"></path>
            </g>
            <g id="database" transform="translate(653.000000, 163.000000)" fill-rule="nonzero">
                <polygon id="Path" fill="#384949" points="6 26 92 26 92 37 6 37"></polygon>
                <polygon id="Path" fill="#293939" points="49 26 92 26 92 37 49 37"></polygon>
                <polygon id="Path" fill="#384949" points="6 61 92 61 92 72 6 72"></polygon>
                <polygon id="Path" fill="#293939" points="49 61 92 61 92 72 49 72"></polygon>
                <polygon id="Path" fill="#4A696F" points="0 0 0 29 98 29 98 0"></polygon>
                <polygon id="Path" fill="#384949" points="49 0 98 0 98 29 49 29"></polygon>
                <polygon id="Path" fill="#9BFCFF" points="12 12 18 12 18 18 12 18"></polygon>
                <polygon id="Path" fill="#9BFCFF" points="23 12 29 12 29 18 23 18"></polygon>
                <polygon id="Path" fill="#9BFCFF" points="35 12 41 12 41 18 35 18"></polygon>
                <polygon id="Path" fill="#293939" points="57 12 86 12 86 18 57 18"></polygon>
                <polygon id="Path" fill="#4A696F" points="0 35 0 64 98 64 98 35"></polygon>
                <polygon id="Path" fill="#384949" points="49 35 98 35 98 64 49 64"></polygon>
                <polygon id="Path" fill="#9BFCFF" points="12 46 18 46 18 52 12 52"></polygon>
                <polygon id="Path" fill="#9BFCFF" points="23 46 29 46 29 52 23 52"></polygon>
                <polygon id="Path" fill="#9BFCFF" points="35 46 41 46 41 52 35 52"></polygon>
                <polygon id="Path" fill="#293939" points="57 46 86 46 86 52 57 52"></polygon>
                <polygon id="Path" fill="#4A696F" points="0 69 0 98 98 98 98 69"></polygon>
                <polygon id="Path" fill="#384949" points="49 69 98 69 98 98 49 98"></polygon>
                <polygon id="Path" fill="#9BFCFF" points="12 81 18 81 18 87 12 87"></polygon>
                <polygon id="Path" fill="#9BFCFF" points="23 81 29 81 29 87 23 87"></polygon>
                <polygon id="Path" fill="#9BFCFF" points="35 81 41 81 41 87 35 87"></polygon>
                <polygon id="Path" fill="#293939" points="57 81 86 81 86 87 57 87"></polygon>
            </g>
            <g id="database-(1)" transform="translate(903.000000, 163.000000)" fill-rule="nonzero">
                <path d="M92.91375,15.3962264 L92.91375,15.3962264 C91.5126667,6.80898113 71.4969167,0 47,0 C22.5030833,0 2.48733333,6.80898113 1.08625,15.3962264 L1.08625,15.3962264 L1,15.3962264 L1,16.3584906 L1,38.490566 L1,39.4528302 L1,40.4150943 L1,61.5849057 L1,62.5471698 L1,63.509434 L1,86.6037736 L1.08625,86.6037736 C2.48733333,95.1890943 22.505,102 47,102 C71.495,102 91.5126667,95.1890943 92.91375,86.6037736 L93,86.6037736 L93,63.509434 L93,62.5471698 L93,61.5849057 L93,40.4150943 L93,39.4528302 L93,38.490566 L93,16.3584906 L93,15.3962264 L92.91375,15.3962264 Z" id="Path" fill="#424A60"></path>
                <g id="Group" transform="translate(0.000000, 61.000000)" fill="#424A60">
                    <path d="M47,18.0909091 C21.5720408,18.0909091 0.959183673,10.8249091 0.959183673,1.86363636 L0.959183673,25.7272727 L1.0455102,25.7272727 C2.44783673,34.2437273 22.4832653,41 47,41 C71.5167347,41 91.5521633,34.2437273 92.9544898,25.7272727 L93.0408163,25.7272727 L93.0408163,1.86363636 C93.0408163,10.8249091 72.4279592,18.0909091 47,18.0909091 Z" id="Path"></path>
                    <path d="M0.959183673,0.909090909 L0.959183673,1.86363636 C0.959183673,1.54290909 0.993714286,1.226 1.0455102,0.909090909 L0.959183673,0.909090909 Z" id="Path"></path>
                    <path d="M92.9544898,0.909090909 C93.0062857,1.226 93.0408163,1.54290909 93.0408163,1.86363636 L93.0408163,0.909090909 L92.9544898,0.909090909 Z" id="Path"></path>
                </g>
                <g id="Group" transform="translate(0.000000, 38.000000)" fill="#556080">
                    <path d="M47,18.0909091 C21.5720408,18.0909091 0.959183673,10.8249091 0.959183673,1.86363636 L0.959183673,25.7272727 L1.0455102,25.7272727 C2.44783673,34.2437273 22.4832653,41 47,41 C71.5167347,41 91.5521633,34.2437273 92.9544898,25.7272727 L93.0408163,25.7272727 L93.0408163,1.86363636 C93.0408163,10.8249091 72.4279592,18.0909091 47,18.0909091 Z" id="Path"></path>
                    <path d="M0.959183673,0.909090909 L0.959183673,1.86363636 C0.959183673,1.54290909 0.993714286,1.226 1.0455102,0.909090909 L0.959183673,0.909090909 Z" id="Path"></path>
                    <path d="M92.9544898,0.909090909 C93.0062857,1.226 93.0408163,1.54290909 93.0408163,1.86363636 L93.0408163,0.909090909 L92.9544898,0.909090909 Z" id="Path"></path>
                </g>
                <ellipse id="Oval" fill="#7FABDA" cx="47" cy="16.5" rx="46" ry="16.5"></ellipse>
                <g id="Group" transform="translate(0.000000, 15.000000)" fill="#7383BF">
                    <path d="M47,18.0909091 C21.5720408,18.0909091 0.959183673,10.8249091 0.959183673,1.86363636 L0.959183673,25.7272727 L1.0455102,25.7272727 C2.44783673,34.2437273 22.4832653,41 47,41 C71.5167347,41 91.5521633,34.2437273 92.9544898,25.7272727 L93.0408163,25.7272727 L93.0408163,1.86363636 C93.0408163,10.8249091 72.4279592,18.0909091 47,18.0909091 Z" id="Path"></path>
                    <path d="M0.959183673,0.909090909 L0.959183673,1.86363636 C0.959183673,1.54290909 0.993714286,1.226 1.0455102,0.909090909 L0.959183673,0.909090909 Z" id="Path"></path>
                    <path d="M92.9544898,0.909090909 C93.0062857,1.226 93.0408163,1.54290909 93.0408163,1.86363636 L93.0408163,0.909090909 L92.9544898,0.909090909 Z" id="Path"></path>
                </g>
            </g>
            <path id="Line-16" d="M227.5,179.5 L236.5,184 L227.5,188.5 L227.5,184.5 L92.5,184.5 L92.5,183.5 L227.5,183.5 L227.5,179.5 Z" fill="#4A696F" fill-rule="nonzero"></path>
            <text id="1.Открыть-website" fill="#384949" font-family="Monaco" font-size="18" font-weight="normal">
                <tspan x="108" y="177">1.Открыть </tspan>
                <tspan x="108" y="200">website</tspan>
            </text>
            <text id="browser" fill="#A3A5A5" font-family="Monaco" font-size="18" font-weight="normal">
                <tspan x="248" y="278">browser</tspan>
            </text>
            <text id="server" fill-opacity="0.3" fill="#324646" font-family="Monaco" font-size="18" font-weight="normal">
                <tspan x="670" y="284">server</tspan>
            </text>
            <text id="DB" fill-opacity="0.3" fill="#324646" font-family="Monaco" font-size="18" font-weight="normal">
                <tspan x="939" y="284">DB</tspan>
            </text>
            <path id="Line-17" d="M645,180 L654,184.5 L645,189 L645,185 L341,185 L341,184 L645,184 L645,180 Z" fill="#4A696F" fill-rule="nonzero"></path>
            <path id="Line-17-Copy" d="M764.515205,179.528839 L764.501,183.529 L895.001,183.97 L895.015303,179.971212 L903.999997,184.501695 L894.984795,188.971161 L894.998,184.97 L764.498,184.529 L764.484697,188.528788 L755.500003,183.998305 L764.515205,179.528839 Z" fill="#4A696F" fill-rule="nonzero"></path>
            <text id="2.HTTP-запрос" fill="#384949" font-family="Monaco" font-size="18" font-weight="normal">
                <tspan x="358" y="181">2.HTTP-запрос</tspan>
            </text>
            <text id="4.HTML-файл" fill="#384949" font-family="Monaco" font-size="18" font-weight="normal">
                <tspan x="358" y="214">4.HTML-файл</tspan>
            </text>
            <text id="Интернет" fill="#384949" opacity="0.29640997" font-family="Monaco" font-size="48" font-weight="normal">
                <tspan x="702" y="124">Интернет</tspan>
            </text>
            <text id="3.Получение-данных" fill="#384949" font-family="Monaco" font-size="18" font-weight="normal">
                <tspan x="766" y="181">3.Получение </tspan>
                <tspan x="766" y="204">данных</tspan>
            </text>
            <path id="Line-18" d="M350,215 L350,219 L649,219 L649,220 L350,220 L350,224 L341,219.5 L350,215 Z" fill="#4A696F" fill-rule="nonzero"></path>
            <path id="Line-19" d="M604,256 L613,260.5 L604,265 L604,261 L343,261 L343,260 L604,260 L604,256 Z" fill="#4A696F" fill-rule="nonzero"></path>
            <text id="5.Получение-ресурсов" fill="#384949" font-family="Monaco" font-size="18" font-weight="normal">
                <tspan x="358" y="255">5.Получение ресурсов</tspan>
            </text>
            <text id="css,-js,-images,-dat" fill="#384949" font-family="Monaco" font-size="18" font-weight="normal">
                <tspan x="358" y="279">css, js, images, data</tspan>
            </text>
            <path id="Line-20" d="M101.484269,250.470411 L101.498,254.47 L236.498258,254.000003 L236.998255,253.998261 L237.001739,254.998255 L236.501742,254.999997 L101.501,255.47 L101.515628,259.470356 L92.500003,255.001742 L101.484269,250.470411 Z" fill="#4A696F" fill-rule="nonzero"></path>
            <text id="6.Картинка-сайта" fill="#384949" font-family="Monaco" font-size="18" font-weight="normal">
                <tspan x="108" y="250">6.Картинка </tspan>
                <tspan x="108" y="273">сайта</tspan>
            </text>
        </g>
    </g>
</svg>